<?xml version="1.0" encoding="UTF-8" standalone="no"?>
<!-- Created with Inkscape (http://www.inkscape.org/) -->

<svg
   xmlns:dc="http://purl.org/dc/elements/1.1/"
   xmlns:cc="http://creativecommons.org/ns#"
   xmlns:rdf="http://www.w3.org/1999/02/22-rdf-syntax-ns#"
   xmlns:svg="http://www.w3.org/2000/svg"
   xmlns="http://www.w3.org/2000/svg"
   xmlns:sodipodi="http://sodipodi.sourceforge.net/DTD/sodipodi-0.dtd"
   xmlns:inkscape="http://www.inkscape.org/namespaces/inkscape"
   id="svg2"
   version="1.1"
   inkscape:version="0.48.3.1 r9886"
   width="358.7625"
   height="455.8"
   xml:space="preserve"
   sodipodi:docname="Leaf_of_Lorien.eps"><metadata
     id="metadata8"><rdf:RDF><cc:Work
         rdf:about=""><dc:format>image/svg+xml</dc:format><dc:type
           rdf:resource="http://purl.org/dc/dcmitype/StillImage" /><dc:title></dc:title></cc:Work></rdf:RDF></metadata><defs
     id="defs6" /><sodipodi:namedview
     pagecolor="#ffffff"
     bordercolor="#666666"
     borderopacity="1"
     objecttolerance="10"
     gridtolerance="10"
     guidetolerance="10"
     inkscape:pageopacity="0"
     inkscape:pageshadow="2"
     inkscape:window-width="640"
     inkscape:window-height="480"
     id="namedview4"
     showgrid="false"
     inkscape:zoom="0.51777097"
     inkscape:cx="179.38126"
     inkscape:cy="227.89999"
     inkscape:window-x="57"
     inkscape:window-y="24"
     inkscape:window-maximized="0"
     inkscape:current-layer="g10" /><g
     id="g10"
     inkscape:groupmode="layer"
     inkscape:label="ink_ext_XXXXXX"
     transform="matrix(1.25,0,0,-1.25,0,455.8)"><g
       id="g12"
       transform="scale(0.1,0.1)"><path
         d="m 710.137,2076.26 c -178.836,161.18 -291.133,393.98 -291.133,652.88 0,285.6 136.648,539.44 348.476,700.41 -32.875,-105.15 -62.675,-251.19 -71.875,-339.49 -7.351,-93.09 -43.941,-209.57 -39.043,-498.66 7.626,-114.47 40.938,-345.3 53.575,-515.14 z M 2407.73,959.832 c 1.54,-39.031 -0.75,-79.422 -7.24,-120.402 -11.79,-74.43 -36.13,-142.649 -69.46,-201.16 -103.9,-82.329 -222.33,-151.739 -351.69,-205.2 -29.36,4.86 -57.06,14.481 -82.8,28.192 16.74,45 25.88,93.679 25.88,144.597 0,10.543 -0.39,21 -1.16,31.332 85.98,5.309 186.93,88.641 240.69,126.051 51.05,35.348 167.3,126.5 245.78,196.59 z m 334.44,269.208 c -50.71,-172.35 -145.1,-330.099 -272.68,-464.431 21.21,88.071 27.51,180.782 17.36,268.541 80.88,70 170.29,130.55 255.32,195.89 z M 1474.61,314.781 c -10.12,13.828 -17.02,27.758 -20.23,41.34 -0.35,1.82 3.19,4.16 5.27,5.668 17.16,12.461 52.25,-4.48 89.72,-39.859 -24.73,-2.91 -49.65,-5.289 -74.76,-7.149 z m 42.75,130.508 c 53.68,18.133 134.5,16.141 218.95,-9.668 16.6,-5.082 32.58,-10.84 47.79,-17.172 -16.42,-24.328 -35.99,-46.5 -58.09,-65.98 -24.39,-5.578 -49.03,-10.637 -73.91,-15.16 -28.86,35.57 -58.87,64.57 -82.05,80.832 -17.82,12.507 -35.56,21.441 -52.69,27.148 z m -133.82,392.133 c -31.46,-56.524 -48.97,-120.813 -47.75,-190.57 1.18,-67.34 19.61,-129 50.96,-183.02 -26.31,-36.801 -35.12,-81.801 -24.33,-128.082 -0.11,-8.18 0.4,-16.691 1.56,-25.488 l -15.35,-0.071 c -11.1,0 -22.16,0.11 -33.2,0.309 -90.82,51.43 -155.74,141.492 -171.08,247.07 2.67,6.219 4.96,13.11 6.87,20.711 28.75,103.938 97.42,178.02 158.82,223.77 23.63,14.859 48.29,26.668 73.5,35.371 z m 452.2,-169.203 c 3.83,-20.219 5.83,-41.071 5.83,-62.36 0,-36.609 -5.91,-71.839 -16.85,-104.89 -100.24,40.672 -212.92,57.652 -286.87,46.051 -31.18,-4.899 -58.65,-13.719 -82.11,-25.598 -20.12,38.957 -31.57,81.82 -32.37,126.949 -1.33,77.16 28.71,148.758 80.33,206.379 32.67,-1.758 64.86,-8.859 95.51,-21.52 56.47,-26.089 175.55,-114.898 236.53,-165.011 z m -764.02,-160.66 c 17.46,-71.887 53.66,-136.411 103.1,-188.579 C 761.594,361.059 402.434,551.301 174.055,824.898 259.91,802.512 363.48,769.191 407.477,746.449 491.379,702.039 716.246,605.719 790.281,581.039 842.102,564.762 904.898,568.711 952.184,549.391 985.812,527 1031.8,506.34 1071.72,507.559 z m 832.17,1058.491 c -1.36,2.86 -3.17,7.97 -4.51,16.09 -6.29,83.57 -18.71,162.59 -32.51,234.23 148.3,-14.05 273.45,-83.3 337.1,-179.23 -108.59,-14.56 -219.37,-42.59 -300.08,-71.09 z M 1635.08,207.77 c 27.06,-51.872 34.87,-96.258 16.24,-109.7895 -23.55,-17.1289 -80.95,21.1915 -131.77,86.5705 40.19,2.551 78.97,10.539 115.53,23.219 z m 665.69,1438.51 c 52.68,2.67 102.32,0.87 144.76,-7.04 104.41,-20.89 296.24,-124.87 376.14,-202.18 35.4,-38.35 56.35,-65.89 34.6,-103.76 -50.25,-297.5 -217.54,-559.128 -458.29,-753.601 -85.06,-151.488 -225.14,-255.867 -408.13,-236.418 -76.7,-30.39 -156.71,-55.472 -239.33,-74.75 -11.71,-8.64 -23.89,-16.711 -36.48,-24.152 42.32,-80.59 57.33,-167.4806 -11.22,-217.2892 C 1600,-47.5898 1475.93,82.2617 1411.19,190.93 1375.54,197.5 1341.38,208.379 1309.32,223 773.051,234.719 295.977,485.309 35.0312,862.301 c -45.9882,29.078 -36.83589,85.09 11.6641,144.619 75.2387,85.6 251.5707,191.02 316.3557,227.01 69.246,40.78 223.211,99.33 301.074,119.69 6.129,2.26 9.852,4.18 12.086,5.64 5.297,7.95 4.648,9.52 4.648,19.66 4.864,208.98 34.075,518.29 34.075,576.62 l 0.039,3.11 c -233.098,176.87 -383.571,456.06 -383.571,770.49 0,368.81 207.036,689.13 511.473,852.74 78.719,91.33 179.945,73.66 232.545,-26.01 68.65,-129.93 188.53,-327.3 249.49,-386.01 74.24,-79.34 237.34,-351.51 281.55,-442.43 61.8,-123.71 175.4,-419.49 200.4,-619.47 5.79,-48.66 23.11,-118.23 41.54,-202.44 192.63,-11.1 376.87,-107.31 452.37,-259.24"
         style="fill:#a3a3a2;fill-opacity:1;fill-rule:evenodd;stroke:none"
         id="path14" /><path
         d="m 710.137,2076.26 c -178.836,161.18 -291.133,393.98 -291.133,652.88 0,285.6 136.648,539.44 348.476,700.41 -32.875,-105.15 -62.675,-251.19 -71.875,-339.49 -7.351,-93.09 -43.941,-209.57 -39.043,-498.66 7.626,-114.47 40.938,-345.3 53.575,-515.14 z M 2407.73,959.832 c 1.54,-39.031 -0.75,-79.422 -7.24,-120.402 -11.79,-74.43 -36.13,-142.649 -69.46,-201.16 -103.9,-82.329 -222.33,-151.739 -351.69,-205.2 -29.36,4.86 -57.06,14.481 -82.8,28.192 16.74,45 25.88,93.679 25.88,144.597 0,10.543 -0.39,21 -1.16,31.332 85.98,5.309 186.93,88.641 240.69,126.051 51.05,35.348 167.3,126.5 245.78,196.59 z m 334.44,269.208 c -50.71,-172.35 -145.1,-330.099 -272.68,-464.431 21.21,88.071 27.51,180.782 17.36,268.541 80.88,70 170.29,130.55 255.32,195.89 z M 1474.61,314.781 c -10.12,13.828 -17.02,27.758 -20.23,41.34 -0.35,1.82 3.19,4.16 5.27,5.668 17.16,12.461 52.25,-4.48 89.72,-39.859 -24.73,-2.91 -49.65,-5.289 -74.76,-7.149 z m 42.75,130.508 c 53.68,18.133 134.5,16.141 218.95,-9.668 16.6,-5.082 32.58,-10.84 47.79,-17.172 -16.42,-24.328 -35.99,-46.5 -58.09,-65.98 -24.39,-5.578 -49.03,-10.637 -73.91,-15.16 -28.86,35.57 -58.87,64.57 -82.05,80.832 -17.82,12.507 -35.56,21.441 -52.69,27.148 z m -133.82,392.133 c -31.46,-56.524 -48.97,-120.813 -47.75,-190.57 1.18,-67.34 19.61,-129 50.96,-183.02 -26.31,-36.801 -35.12,-81.801 -24.33,-128.082 -0.11,-8.18 0.4,-16.691 1.56,-25.488 l -15.35,-0.071 c -11.1,0 -22.16,0.11 -33.2,0.309 -90.82,51.43 -155.74,141.492 -171.08,247.07 2.67,6.219 4.96,13.11 6.87,20.711 28.75,103.938 97.42,178.02 158.82,223.77 23.63,14.859 48.29,26.668 73.5,35.371 z m 452.2,-169.203 c 3.83,-20.219 5.83,-41.071 5.83,-62.36 0,-36.609 -5.91,-71.839 -16.85,-104.89 -100.24,40.672 -212.92,57.652 -286.87,46.051 -31.18,-4.899 -58.65,-13.719 -82.11,-25.598 -20.12,38.957 -31.57,81.82 -32.37,126.949 -1.33,77.16 28.71,148.758 80.33,206.379 32.67,-1.758 64.86,-8.859 95.51,-21.52 56.47,-26.089 175.55,-114.898 236.53,-165.011 z m -764.02,-160.66 c 17.46,-71.887 53.66,-136.411 103.1,-188.579 C 761.594,361.059 402.434,551.301 174.055,824.898 259.91,802.512 363.48,769.191 407.477,746.449 491.379,702.039 716.246,605.719 790.281,581.039 842.102,564.762 904.898,568.711 952.184,549.391 985.812,527 1031.8,506.34 1071.72,507.559 z m 832.17,1058.491 c -1.36,2.86 -3.17,7.97 -4.51,16.09 -6.29,83.57 -18.71,162.59 -32.51,234.23 148.3,-14.05 273.45,-83.3 337.1,-179.23 -108.59,-14.56 -219.37,-42.59 -300.08,-71.09 z M 1635.08,207.77 c 27.06,-51.872 34.87,-96.258 16.24,-109.7895 -23.55,-17.1289 -80.95,21.1915 -131.77,86.5705 40.19,2.551 78.97,10.539 115.53,23.219 z m 665.69,1438.51 c 52.68,2.67 102.32,0.87 144.76,-7.04 104.41,-20.89 296.24,-124.87 376.14,-202.18 35.4,-38.35 56.35,-65.89 34.6,-103.76 -50.25,-297.5 -217.54,-559.128 -458.29,-753.601 -85.06,-151.488 -225.14,-255.867 -408.13,-236.418 -76.7,-30.39 -156.71,-55.472 -239.33,-74.75 -11.71,-8.64 -23.89,-16.711 -36.48,-24.152 42.32,-80.59 57.33,-167.4806 -11.22,-217.2892 C 1600,-47.5898 1475.93,82.2617 1411.19,190.93 1375.54,197.5 1341.38,208.379 1309.32,223 773.051,234.719 295.977,485.309 35.0312,862.301 c -45.9882,29.078 -36.83589,85.09 11.6641,144.619 75.2387,85.6 251.5707,191.02 316.3557,227.01 69.246,40.78 223.211,99.33 301.074,119.69 6.129,2.26 9.852,4.18 12.086,5.64 5.297,7.95 4.648,9.52 4.648,19.66 4.864,208.98 34.075,518.29 34.075,576.62 l 0.039,3.11 c -233.098,176.87 -383.571,456.06 -383.571,770.49 0,368.81 207.036,689.13 511.473,852.74 78.719,91.33 179.945,73.66 232.545,-26.01 68.65,-129.93 188.53,-327.3 249.49,-386.01 74.24,-79.34 237.34,-351.51 281.55,-442.43 61.8,-123.71 175.4,-419.49 200.4,-619.47 5.79,-48.66 23.11,-118.23 41.54,-202.44 192.63,-11.1 376.87,-107.31 452.37,-259.24 z"
         style="fill:none;stroke:#100f0d;stroke-opacity:1;stroke-width:10;stroke-linecap:butt;stroke-linejoin:miter;stroke-miterlimit:3.86369;stroke-dasharray:none"
         id="path16" /><path
         d="m 1576.93,966.449 c -31.18,-30.84 -113.08,-73.457 -111.78,39.261 6.37,231.66 235.13,568.71 270.42,672.13 13.39,37.72 1.22,40.15 -14.6,14.6 -35.29,-59.62 -176.44,-284.72 -243.35,-425.86 -15.82,-36.51 -20.7,-20.69 -26.78,19.46 -17.05,118.04 -17.05,301.77 17.05,367.46 25.54,46.24 194.68,345.58 226.31,406.41 18.26,37.72 0,53.54 -17.03,26.77 -24.35,-37.72 -188.61,-306.63 -231.19,-369.91 -29.21,-46.23 -45.03,-29.2 -46.25,14.61 -4.86,107.08 -23.11,248.22 2.44,313.93 34.07,94.91 161.83,283.51 187.39,418.57 4.85,34.07 -15.82,38.94 -21.9,9.73 -21.91,-115.59 -152.11,-283.5 -194.71,-379.63 -14.6,-31.64 -27.96,-27.98 -36.48,17.03 -20.69,99.78 -36.51,242.14 -9.75,321.24 19.48,59.61 96.13,204.41 128.99,267.69 13.37,25.55 -2.43,40.15 -12.17,19.46 -36.5,-79.09 -133.85,-170.35 -172.78,-292.02 -9.74,-29.21 -31.64,-21.91 -38.94,12.17 -4.87,21.89 4.85,35.28 -14.61,68.13 -31.63,69.36 -19.46,147.24 -7.29,177.65 15.81,34.07 60.84,125.33 77.87,165.48 14.6,31.64 -6.08,45.03 -21.91,14.6 -25.54,-45.02 -57.17,-97.33 -85.16,-138.71 -9.74,-17.04 -18.25,-32.85 -34.07,-2.43 -77.89,180.08 -38.94,205.63 12.16,384.5 7.3,31.64 -8.51,49.89 -24.34,17.04 -24.32,-51.11 -32.86,-75.44 -58.4,-152.1 -7.31,-25.55 -19.47,-19.47 -25.54,2.43 -40.16,136.28 -31.65,236.06 -6.1,295.68 12.17,25.55 -7.29,45.02 -21.9,14.6 -20.68,-40.15 -36.507,-32.86 -43.803,2.43 -8.524,45.02 -17.039,152.1 -21.903,195.9 -2.429,21.3 -15.816,23.73 -19.465,3.65 -4.875,-31.63 0,-98.56 0,-130.19 0,-40.16 14.594,-63.27 -14.605,-59.62 -11.563,2.13 -19.469,4.86 -31.637,17.03 -18.25,14.6 -34.07,0 2.434,-29.2 74.226,-59.62 88.82,-131.41 102.211,-211.72 3.648,-29.2 -6.078,-35.29 -29.2,-19.47 -20.695,15.82 -69.367,48.68 -107.085,65.71 -25.547,10.94 -35.282,-4.87 -14.594,-21.9 52.312,-38.94 158.177,-127.77 197.107,-214.15 10.95,-21.91 17.05,-37.72 -12.17,-34.08 -47.449,7.31 -148.437,62.06 -192.242,77.88 -32.848,10.95 -26.773,-10.95 2.438,-26.77 42.586,-26.77 126.546,-70.57 189.804,-107.08 49.9,-31.64 96.13,-118.02 126.56,-250.65 6.09,-36.51 -9.73,-27.99 -31.64,-19.47 -68.14,30.42 -270.127,172.78 -301.76,197.12 -19.468,14.59 -26.773,2.43 -12.175,-14.61 38.937,-42.58 287.175,-228.75 328.525,-255.51 64.5,-41.38 103.44,-114.39 126.55,-236.06 4.88,-24.34 -14.6,-36.51 -38.93,-26.77 -148.45,66.92 -304.196,203.2 -362.598,265.25 -23.125,23.12 -36.508,8.53 -19.469,-14.59 75.433,-102.22 228.747,-228.76 413.707,-335.83 31.63,-17.04 53.53,-43.81 53.53,-80.31 1.21,-45.03 20.69,-143.58 38.94,-199.56 7.29,-21.9 -17.03,-14.6 -34.06,-7.29 -98.57,42.58 -337.059,232.4 -438.051,316.36 -18.25,17.03 -29.207,0 -14.597,-14.6 29.199,-24.34 172.788,-206.86 365.028,-306.64 107.09,-65.69 122.9,-110.72 143.57,-194.68 10.02,-41.16 18,-105.7 17.44,-184.35 -0.39,-13.98 -6.47,-19.45 -24.35,-10.27 -115.63,63.45 -319.64,231.09 -491.958,396.61 -19.469,19.47 -21.898,4.86 -14.605,-9.74 86.39,-159.38 405.193,-385.72 476.993,-447.76 20.68,-18.26 34.06,-34.08 41.37,-58.42 10.94,-35.28 34.06,-113.16 38.93,-192.26 2.44,-29.19 -13.39,-25.53 -31.65,-14.59 -169.12,96.13 -448.975,338.27 -532.936,425.87 -29.204,31.63 -41.379,18.27 -21.907,-12.16 111.946,-178.87 436.823,-383.29 567.023,-506.19 53.54,-62.049 -19.46,-132.631 -75.44,-77.869 -34.07,30.418 -234.84,152.099 -284.72,200.769 -58.413,51.1 -192.257,118.03 -216.597,125.33 -18.254,3.65 -20.684,-4.87 -9.738,-17.03 12.175,-14.6 125.34,-79.1 163.05,-119.24 37.715,-41.37 158.195,-133.86 206.865,-158.188 40.15,-17.043 12.17,-23.121 -24.34,-20.68 -68.14,6.078 -143.59,14.598 -177.653,45.008 -69.356,70.58 -265.266,209.29 -335.829,257.96 -12.171,9.73 -19.476,-6.08 -7.308,-19.46 23.121,-21.9 221.457,-198.34 248.226,-219.02 19.469,-19.48 12.168,-25.55 -4.867,-21.89 -114.375,21.89 -176.429,62.03 -255.527,128.96 -59.617,45.01 -126.543,60.84 -146.012,70.57 -21.902,10.95 -21.902,-12.17 -8.519,-17.03 66.925,-29.2 164.269,-97.35 210.504,-138.71 15.82,-14.6 7.304,-20.69 -9.731,-19.48 -62.059,3.66 -144.801,0 -184.953,12.17 -36.504,9.75 -90.043,42.59 -180.082,85.18 -19.473,7.61 -20.688,-8.83 -7.305,-15.81 38.946,-21.92 74.223,-43.82 107.078,-57.21 18.254,-8.5 8.52,-14.58 -2.433,-17.02 -29.199,-6.08 -237.274,-38.941 -287.16,-53.538 -26.766,-8.512 -13.387,-26.762 4.871,-21.903 55.965,14.602 316.367,51.102 335.828,48.672 19.472,-2.441 25.551,-18.242 12.172,-29.211 -18.254,-15.808 -131.41,-65.699 -153.317,-75.429 -15.824,-7.309 -13.383,-21.899 2.43,-17.039 37.531,11.796 172.395,61.957 234.84,96.117 13.383,8.511 26.769,18.273 46.242,18.273 40.152,0 113.16,-2.441 152.098,0 23.117,0 18.25,-12.172 4.863,-26.781 -31.633,-31.621 -126.543,-83.961 -170.348,-107.07 -13.39,-7.321 -6.086,-21.911 4.867,-17.039 63.266,30.429 181.297,90.046 214.157,109.507 13.379,8.52 24.332,7.301 36.504,9.731 43.8,4.871 100.992,-8.508 126.546,-21.899 7.907,-5.472 6.684,-15.211 0,-24.332 C 922.754,835.82 768.223,756.75 701.301,733.629 c -19.465,-6.098 -9.735,-24.34 12.16,-19.481 147.238,36.512 266.48,124.122 310.289,176.442 12.17,13.39 25.56,15.82 46.24,15.82 l 76.66,0 c 20.68,0 26.77,-12.168 17.02,-21.91 -29.2,-25.539 -93.68,-86.379 -158.18,-189.809 -12.162,-19.472 3.66,-25.55 12.17,-14.609 74.22,104.648 167.92,180.078 219.01,204.418 24.35,10.949 58.42,3.66 70.58,-7.289 8.27,-9.191 11,-19.07 9.75,-30.672 -9.07,-4.82 -18,-10 -26.78,-15.578 -65.71,-48.66 -141.14,-128.969 -172.78,-243.352 -14.61,-60.839 -73.01,-58.398 -148.448,-7.3 -43.804,19.472 -82.742,7.3 -167.914,34.07 -73.012,24.34 -294.461,119.25 -377.199,163.051 -65.715,34.062 -248.234,87.609 -333.4024,102.211 -58.4102,9.73 -70.5782,38.949 -17.0391,104.64 70.5705,80.299 240.9255,182.509 306.6245,219.019 65.715,38.94 219.032,97.34 294.465,116.82 34.078,12.16 41.371,26.76 41.371,58.4 4.872,209.29 34.075,518.34 34.075,576.75 2.433,158.18 -48.672,491.58 -58.407,637.59 -4.867,287.16 31.637,401.53 38.938,494.02 12.168,116.8 60.84,333.38 102.207,416.12 70.574,138.71 165.488,124.11 211.719,36.51 68.15,-128.98 189.83,-330.97 255.53,-394.24 70.57,-75.44 231.18,-343.13 275,-433.16 60.84,-121.69 172.78,-413.71 197.12,-608.39 12.17,-102.21 75.44,-296.9 92.46,-525.65 4.88,-31.64 19.48,-58.42 53.55,-43.81 143.58,51.11 377.2,97.35 520.79,70.57 97.33,-19.46 282.29,-119.24 357.72,-192.25 29.21,-31.63 53.55,-46.23 2.44,-92.46 C 2745.5,1273.86 2499.71,1093.78 2434,1032.94 2370.73,967.23 2205.24,835.82 2141.98,792.039 2086,753.09 1986.22,687.379 1952.16,677.66 c -34.07,-9.75 -60.84,-12.18 -87.62,12.16 -58.4,48.68 -187.37,146 -250.65,175.219 -5.06,2.109 -10.16,4.102 -15.29,5.941 -5.4,19.372 0.16,38.68 8.69,54.739 10.25,19.621 37.21,32.961 63.82,30.992 56.35,-5.391 170.2,-44.242 275.74,-117.18 11.74,-7.383 24.53,3.75 6.43,17.879 -95.98,75.129 -177.38,110.242 -213.56,124.262 -12.47,5.816 -10.92,19.348 8.51,26.408 0,0 83.47,35.82 120.89,27.18 86.69,-24.21 191.33,-53.42 351.92,-59.678 18.29,0.188 26.79,19.648 4.78,22.449 -86.27,5.709 -233.51,25.189 -305.86,64.779 -12.82,4.22 -13.89,15.02 -8.33,22.87 19.44,21.32 68.6,53.46 111.43,63.87 12.26,1.88 22.14,6.76 37.63,3.33 37.53,-7.05 168.83,-22.71 238.69,-29.66 11.96,-0.82 13.82,15.4 -1.25,17.67 -49.07,6.75 -156.15,23.46 -196.7,42.36 -17.87,6.66 -22.72,21.27 -4.58,26.82 37.42,11.03 105.19,38.28 142.93,52.02 18.3,6.65 34.2,2.08 49.69,-1.33 70.36,-10.75 214.25,-11.76 253.55,-10.01 16.52,0.83 13.83,15.39 -3.54,16.84 -23.91,1.66 -147.32,9.83 -169.86,18.45 -16.34,5.71 -16.03,22.67 1.43,31.6 17.47,8.96 274.64,63.7 332.23,69.12 18.82,1.68 25.16,23.41 -2.91,22.25 -51.87,-3.33 -258.64,-43.63 -288.16,-47.9 -11.13,-1.47 -19.58,2.8 -8.11,15.17 26.29,23.81 17.84,17.01 46.94,50.91 10.19,11.15 3.42,26.16 -12.28,12.36 -70.04,-70.81 -81.42,-81.72 -105.97,-102.16 -33.57,-25.18 -112.56,-50.04 -169.63,-74.7 -15.59,-6.96 -25.68,-4.16 -15.82,14.96 29.31,54.7 97.47,152.01 150.37,202.35 10.92,9.15 3.01,30.88 -13.81,13.1 -14.97,-15.82 -72.46,-53.56 -113.09,-116.27 -51.43,-89.92 -96.01,-148.89 -196,-208.58 -14.75,-9.27 -23.7,-6.05 -12.06,18.91 18.09,28.59 144.12,262.22 158.35,290.72 6.85,16.73 -5.43,29.1 -13.52,15.79 -49.67,-69.88 -186.32,-267.22 -227.36,-357.27 -21.61,-40.23 -89.59,-74.04 -151.54,-103.07 -33.47,-14.76 -46.65,-10.11 -29.94,11.13 44.13,52.99 151.2,234.28 252.71,387.19 9.21,13.78 -2.94,22.3 -14.98,12.69 -20.37,-15.19 -254.44,-357.84 -359.54,-477.891"
         style="fill:#32902d;fill-opacity:1;fill-rule:evenodd;stroke:none"
         id="path18" /><path
         d="m 1576.93,966.449 c -31.18,-30.84 -113.08,-73.457 -111.78,39.261 6.37,231.66 235.13,568.71 270.42,672.13 13.39,37.72 1.22,40.15 -14.6,14.6 -35.29,-59.62 -176.44,-284.72 -243.35,-425.86 -15.82,-36.51 -20.7,-20.69 -26.78,19.46 -17.05,118.04 -17.05,301.77 17.05,367.46 25.54,46.24 194.68,345.58 226.31,406.41 18.26,37.72 0,53.54 -17.03,26.77 -24.35,-37.72 -188.61,-306.63 -231.19,-369.91 -29.21,-46.23 -45.03,-29.2 -46.25,14.61 -4.86,107.08 -23.11,248.22 2.44,313.93 34.07,94.91 161.83,283.51 187.39,418.57 4.85,34.07 -15.82,38.94 -21.9,9.73 -21.91,-115.59 -152.11,-283.5 -194.71,-379.63 -14.6,-31.64 -27.96,-27.98 -36.48,17.03 -20.69,99.78 -36.51,242.14 -9.75,321.24 19.48,59.61 96.13,204.41 128.99,267.69 13.37,25.55 -2.43,40.15 -12.17,19.46 -36.5,-79.09 -133.85,-170.35 -172.78,-292.02 -9.74,-29.21 -31.64,-21.91 -38.94,12.17 -4.87,21.89 4.85,35.28 -14.61,68.13 -31.63,69.36 -19.46,147.24 -7.29,177.65 15.81,34.07 60.84,125.33 77.87,165.48 14.6,31.64 -6.08,45.03 -21.91,14.6 -25.54,-45.02 -57.17,-97.33 -85.16,-138.71 -9.74,-17.04 -18.25,-32.85 -34.07,-2.43 -77.89,180.08 -38.94,205.63 12.16,384.5 7.3,31.64 -8.51,49.89 -24.34,17.04 -24.32,-51.11 -32.86,-75.44 -58.4,-152.1 -7.31,-25.55 -19.47,-19.47 -25.54,2.43 -40.16,136.28 -31.65,236.06 -6.1,295.68 12.17,25.55 -7.29,45.02 -21.9,14.6 -20.68,-40.15 -36.507,-32.86 -43.803,2.43 -8.524,45.02 -17.039,152.1 -21.903,195.9 -2.429,21.3 -15.816,23.73 -19.465,3.65 -4.875,-31.63 0,-98.56 0,-130.19 0,-40.16 14.594,-63.27 -14.605,-59.62 -11.563,2.13 -19.469,4.86 -31.637,17.03 -18.25,14.6 -34.07,0 2.434,-29.2 74.226,-59.62 88.82,-131.41 102.211,-211.72 3.648,-29.2 -6.078,-35.29 -29.2,-19.47 -20.695,15.82 -69.367,48.68 -107.085,65.71 -25.547,10.94 -35.282,-4.87 -14.594,-21.9 52.312,-38.94 158.177,-127.77 197.107,-214.15 10.95,-21.91 17.05,-37.72 -12.17,-34.08 -47.449,7.31 -148.437,62.06 -192.242,77.88 -32.848,10.95 -26.773,-10.95 2.438,-26.77 42.586,-26.77 126.546,-70.57 189.804,-107.08 49.9,-31.64 96.13,-118.02 126.56,-250.65 6.09,-36.51 -9.73,-27.99 -31.64,-19.47 -68.14,30.42 -270.127,172.78 -301.76,197.12 -19.468,14.59 -26.773,2.43 -12.175,-14.61 38.937,-42.58 287.175,-228.75 328.525,-255.51 64.5,-41.38 103.44,-114.39 126.55,-236.06 4.88,-24.34 -14.6,-36.51 -38.93,-26.77 -148.45,66.92 -304.196,203.2 -362.598,265.25 -23.125,23.12 -36.508,8.53 -19.469,-14.59 75.433,-102.22 228.747,-228.76 413.707,-335.83 31.63,-17.04 53.53,-43.81 53.53,-80.31 1.21,-45.03 20.69,-143.58 38.94,-199.56 7.29,-21.9 -17.03,-14.6 -34.06,-7.29 -98.57,42.58 -337.059,232.4 -438.051,316.36 -18.25,17.03 -29.207,0 -14.597,-14.6 29.199,-24.34 172.788,-206.86 365.028,-306.64 107.09,-65.69 122.9,-110.72 143.57,-194.68 10.02,-41.16 18,-105.7 17.44,-184.35 -0.39,-13.98 -6.47,-19.45 -24.35,-10.27 -115.63,63.45 -319.64,231.09 -491.958,396.61 -19.469,19.47 -21.898,4.86 -14.605,-9.74 86.39,-159.38 405.193,-385.72 476.993,-447.76 20.68,-18.26 34.06,-34.08 41.37,-58.42 10.94,-35.28 34.06,-113.16 38.93,-192.26 2.44,-29.19 -13.39,-25.53 -31.65,-14.59 -169.12,96.13 -448.975,338.27 -532.936,425.87 -29.204,31.63 -41.379,18.27 -21.907,-12.16 111.946,-178.87 436.823,-383.29 567.023,-506.19 53.54,-62.049 -19.46,-132.631 -75.44,-77.869 -34.07,30.418 -234.84,152.099 -284.72,200.769 -58.413,51.1 -192.257,118.03 -216.597,125.33 -18.254,3.65 -20.684,-4.87 -9.738,-17.03 12.175,-14.6 125.34,-79.1 163.05,-119.24 37.715,-41.37 158.195,-133.86 206.865,-158.188 40.15,-17.043 12.17,-23.121 -24.34,-20.68 -68.14,6.078 -143.59,14.598 -177.653,45.008 -69.356,70.58 -265.266,209.29 -335.829,257.96 -12.171,9.73 -19.476,-6.08 -7.308,-19.46 23.121,-21.9 221.457,-198.34 248.226,-219.02 19.469,-19.48 12.168,-25.55 -4.867,-21.89 -114.375,21.89 -176.429,62.03 -255.527,128.96 -59.617,45.01 -126.543,60.84 -146.012,70.57 -21.902,10.95 -21.902,-12.17 -8.519,-17.03 66.925,-29.2 164.269,-97.35 210.504,-138.71 15.82,-14.6 7.304,-20.69 -9.731,-19.48 -62.059,3.66 -144.801,0 -184.953,12.17 -36.504,9.75 -90.043,42.59 -180.082,85.18 -19.473,7.61 -20.688,-8.83 -7.305,-15.81 38.946,-21.92 74.223,-43.82 107.078,-57.21 18.254,-8.5 8.52,-14.58 -2.433,-17.02 -29.199,-6.08 -237.274,-38.941 -287.16,-53.538 -26.766,-8.512 -13.387,-26.762 4.871,-21.903 55.965,14.602 316.367,51.102 335.828,48.672 19.472,-2.441 25.551,-18.242 12.172,-29.211 -18.254,-15.808 -131.41,-65.699 -153.317,-75.429 -15.824,-7.309 -13.383,-21.899 2.43,-17.039 37.531,11.796 172.395,61.957 234.84,96.117 13.383,8.511 26.769,18.273 46.242,18.273 40.152,0 113.16,-2.441 152.098,0 23.117,0 18.25,-12.172 4.863,-26.781 -31.633,-31.621 -126.543,-83.961 -170.348,-107.07 -13.39,-7.321 -6.086,-21.911 4.867,-17.039 63.266,30.429 181.297,90.046 214.157,109.507 13.379,8.52 24.332,7.301 36.504,9.731 43.8,4.871 100.992,-8.508 126.546,-21.899 7.907,-5.472 6.684,-15.211 0,-24.332 C 922.754,835.82 768.223,756.75 701.301,733.629 c -19.465,-6.098 -9.735,-24.34 12.16,-19.481 147.238,36.512 266.48,124.122 310.289,176.442 12.17,13.39 25.56,15.82 46.24,15.82 l 76.66,0 c 20.68,0 26.77,-12.168 17.02,-21.91 -29.2,-25.539 -93.68,-86.379 -158.18,-189.809 -12.162,-19.472 3.66,-25.55 12.17,-14.609 74.22,104.648 167.92,180.078 219.01,204.418 24.35,10.949 58.42,3.66 70.58,-7.289 8.27,-9.191 11,-19.07 9.75,-30.672 -9.07,-4.82 -18,-10 -26.78,-15.578 -65.71,-48.66 -141.14,-128.969 -172.78,-243.352 -14.61,-60.839 -73.01,-58.398 -148.448,-7.3 -43.804,19.472 -82.742,7.3 -167.914,34.07 -73.012,24.34 -294.461,119.25 -377.199,163.051 -65.715,34.062 -248.234,87.609 -333.4024,102.211 -58.4102,9.73 -70.5782,38.949 -17.0391,104.64 70.5705,80.299 240.9255,182.509 306.6245,219.019 65.715,38.94 219.032,97.34 294.465,116.82 34.078,12.16 41.371,26.76 41.371,58.4 4.872,209.29 34.075,518.34 34.075,576.75 2.433,158.18 -48.672,491.58 -58.407,637.59 -4.867,287.16 31.637,401.53 38.938,494.02 12.168,116.8 60.84,333.38 102.207,416.12 70.574,138.71 165.488,124.11 211.719,36.51 68.15,-128.98 189.83,-330.97 255.53,-394.24 70.57,-75.44 231.18,-343.13 275,-433.16 60.84,-121.69 172.78,-413.71 197.12,-608.39 12.17,-102.21 75.44,-296.9 92.46,-525.65 4.88,-31.64 19.48,-58.42 53.55,-43.81 143.58,51.11 377.2,97.35 520.79,70.57 97.33,-19.46 282.29,-119.24 357.72,-192.25 29.21,-31.63 53.55,-46.23 2.44,-92.46 C 2745.5,1273.86 2499.71,1093.78 2434,1032.94 2370.73,967.23 2205.24,835.82 2141.98,792.039 2086,753.09 1986.22,687.379 1952.16,677.66 c -34.07,-9.75 -60.84,-12.18 -87.62,12.16 -58.4,48.68 -187.37,146 -250.65,175.219 -5.06,2.109 -10.16,4.102 -15.29,5.941 -5.4,19.372 0.16,38.68 8.69,54.739 10.25,19.621 37.21,32.961 63.82,30.992 56.35,-5.391 170.2,-44.242 275.74,-117.18 11.74,-7.383 24.53,3.75 6.43,17.879 -95.98,75.129 -177.38,110.242 -213.56,124.262 -12.47,5.816 -10.92,19.348 8.51,26.408 0,0 83.47,35.82 120.89,27.18 86.69,-24.21 191.33,-53.42 351.92,-59.678 18.29,0.188 26.79,19.648 4.78,22.449 -86.27,5.709 -233.51,25.189 -305.86,64.779 -12.82,4.22 -13.89,15.02 -8.33,22.87 19.44,21.32 68.6,53.46 111.43,63.87 12.26,1.88 22.14,6.76 37.63,3.33 37.53,-7.05 168.83,-22.71 238.69,-29.66 11.96,-0.82 13.82,15.4 -1.25,17.67 -49.07,6.75 -156.15,23.46 -196.7,42.36 -17.87,6.66 -22.72,21.27 -4.58,26.82 37.42,11.03 105.19,38.28 142.93,52.02 18.3,6.65 34.2,2.08 49.69,-1.33 70.36,-10.75 214.25,-11.76 253.55,-10.01 16.52,0.83 13.83,15.39 -3.54,16.84 -23.91,1.66 -147.32,9.83 -169.86,18.45 -16.34,5.71 -16.03,22.67 1.43,31.6 17.47,8.96 274.64,63.7 332.23,69.12 18.82,1.68 25.16,23.41 -2.91,22.25 -51.87,-3.33 -258.64,-43.63 -288.16,-47.9 -11.13,-1.47 -19.58,2.8 -8.11,15.17 26.29,23.81 17.84,17.01 46.94,50.91 10.19,11.15 3.42,26.16 -12.28,12.36 -70.04,-70.81 -81.42,-81.72 -105.97,-102.16 -33.57,-25.18 -112.56,-50.04 -169.63,-74.7 -15.59,-6.96 -25.68,-4.16 -15.82,14.96 29.31,54.7 97.47,152.01 150.37,202.35 10.92,9.15 3.01,30.88 -13.81,13.1 -14.97,-15.82 -72.46,-53.56 -113.09,-116.27 -51.43,-89.92 -96.01,-148.89 -196,-208.58 -14.75,-9.27 -23.7,-6.05 -12.06,18.91 18.09,28.59 144.12,262.22 158.35,290.72 6.85,16.73 -5.43,29.1 -13.52,15.79 -49.67,-69.88 -186.32,-267.22 -227.36,-357.27 -21.61,-40.23 -89.59,-74.04 -151.54,-103.07 -33.47,-14.76 -46.65,-10.11 -29.94,11.13 44.13,52.99 151.2,234.28 252.71,387.19 9.21,13.78 -2.94,22.3 -14.98,12.69 -20.37,-15.19 -254.44,-357.84 -359.54,-477.891 z"
         style="fill:none;stroke:#100f0d;stroke-opacity:1;stroke-width:10;stroke-linecap:butt;stroke-linejoin:miter;stroke-miterlimit:3.86369;stroke-dasharray:none"
         id="path20" /></g></g></svg>